<svg width="200" height="200" viewBox="0 0 200 200" fill="none" xmlns="http://www.w3.org/2000/svg">
<path fill-rule="evenodd" clip-rule="evenodd" d="M100 200C155.229 200 200 155.229 200 100C200 44.7715 155.229 0 100 0C44.7715 0 0 44.7715 0 100C0 155.229 44.7715 200 100 200ZM92.3954 103.326C94.8046 108.721 107.559 126.163 124.418 126.163C138.36 126.163 152.97 117.282 159.848 113.1C161.288 112.225 162.389 111.556 163.074 111.217C169.353 108.112 175.766 113.092 173.874 119.836C168.358 139.493 147.998 176.744 98.8369 176.744C55.8578 176.744 34.7317 143.566 30.3105 132.318C28.7915 128.768 27.8072 124.897 27.4736 120.808C27.4182 120.129 27.3818 119.453 27.3632 118.781L27.421 115.442C28.4892 98.3723 42.4541 84.3168 59.1821 82.9519C73.5558 81.7792 86.5875 90.3222 92.3954 103.326Z" fill="url(#paint0_linear)"/>
<defs>
<linearGradient id="paint0_linear" x1="165.169" y1="-1.82348e-05" x2="29.7753" y2="200" gradientUnits="userSpaceOnUse">
<stop stop-color="#EB2487"/>
<stop offset="1" stop-color="#F93939"/>
</linearGradient>
</defs>
</svg>
